<?xml version="1.0" encoding="utf-8"?><svg xmlns="http://www.w3.org/2000/svg" xmlns:xlink="http://www.w3.org/1999/xlink" width="1920" height="894" preserveAspectRatio="xMidYMid" viewBox="0 0 1920 894" style="z-index:1;margin-right:-2px;display:block;background-repeat-y:initial;background-repeat-x:initial;background-color:rgb(127, 183, 126);animation-play-state:paused" ><g transform="translate(960,447) scale(1,1) translate(-960,-447)" style="transform:matrix(1, 0, 0, 1, 0, 0);animation-play-state:paused" ><defs style="animation-play-state:paused" ><filter id="blur-anxn5ryoj0b-1" x="-1" y="-1" width="3" height="3" style="animation-play-state:paused" ><feGaussianBlur stdDeviation="3" style="animation-play-state:paused" ></feGaussianBlur></filter>
<filter id="blur-anxn5ryoj0b-2" x="-1" y="-1" width="3" height="3" style="animation-play-state:paused" ><feGaussianBlur stdDeviation="1.5" style="animation-play-state:paused" ></feGaussianBlur></filter>
<filter id="blur-anxn5ryoj0b-3" x="-1" y="-1" width="3" height="3" style="animation-play-state:paused" ><feGaussianBlur stdDeviation="1" style="animation-play-state:paused" ></feGaussianBlur></filter></defs>
<circle cx="1396.2148477530075" cy="0" transform="matrix(1,0,0,1,0,427.829345703125)" r="35.480243354510776" fill="#f7f6dc" opacity="0.36000000000000004" style="transform:matrix(1, 0, 0, 1, 0, 427.829);opacity:0.36;animation-play-state:paused" ></circle>
<circle cx="1412.4584646467524" cy="0" transform="matrix(1,0,0,1,0,55.58282470703125)" r="35.92249814742421" fill="#ffc090" opacity="0.36000000000000004" style="transform:matrix(1, 0, 0, 1, 0, 55.5828);opacity:0.36;animation-play-state:paused" ></circle>
<circle cx="1213.0100398520883" cy="0" transform="matrix(1,0,0,1,0,638.4593505859375)" r="21.91228045278003" fill="#f7f6dc" opacity="0.36000000000000004" style="transform:matrix(1, 0, 0, 1, 0, 638.459);opacity:0.36;animation-play-state:paused" ></circle>
<circle cx="1354.5740410866276" cy="0" transform="matrix(1,0,0,1,0,699.1173706054688)" r="29.771089834287352" fill="#ffc090" opacity="0.36000000000000004" style="transform:matrix(1, 0, 0, 1, 0, 699.117);opacity:0.36;animation-play-state:paused" ></circle>
<circle cx="1055.4809543748229" cy="0" transform="matrix(1,0,0,1,0,257.28033447265625)" r="65.13717786698138" fill="#ffc090" opacity="0.7200000000000001" style="transform:matrix(1, 0, 0, 1, 0, 257.28);opacity:0.72;animation-play-state:paused" ></circle>
<circle cx="24.53463782206839" cy="0" transform="matrix(1,0,0,1,0,484.6035461425781)" r="52.004899197246615" fill="#ffc090" opacity="0.63" style="transform:matrix(1, 0, 0, 1, 0, 484.604);opacity:0.63;animation-play-state:paused" ></circle>
<circle cx="297.5960953103988" cy="0" transform="matrix(1,0,0,1,0,848.5013427734375)" r="70.56055110474307" fill="#ffc090" opacity="0.7200000000000001" style="transform:matrix(1, 0, 0, 1, 0, 848.501);opacity:0.72;animation-play-state:paused" ></circle>
<circle cx="1377.4548422104258" cy="0" transform="matrix(1,0,0,1,0,392.66815185546875)" r="49.220093726657325" fill="#f7f6dc" opacity="0.63" style="transform:matrix(1, 0, 0, 1, 0, 392.668);opacity:0.63;animation-play-state:paused" ></circle>
<circle cx="1537.7201524626569" cy="0" transform="matrix(1,0,0,1,0,146.23779296875)" r="25.433732217730757" fill="#f7f6dc" opacity="0.36000000000000004" style="transform:matrix(1, 0, 0, 1, 0, 146.238);opacity:0.36;animation-play-state:paused" ></circle>
<circle cx="1314.802855740043" cy="0" transform="matrix(1,0,0,1,0,596.2310180664062)" r="28.020293344986133" fill="#ffc090" opacity="0.36000000000000004" style="transform:matrix(1, 0, 0, 1, 0, 596.231);opacity:0.36;animation-play-state:paused" ></circle>
<circle cx="1411.0409448278988" cy="0" transform="matrix(1,0,0,1,0,791.717041015625)" r="28.001104344576817" fill="#f7f6dc" opacity="0.36000000000000004" style="transform:matrix(1, 0, 0, 1, 0, 791.717);opacity:0.36;animation-play-state:paused" ></circle>
<circle cx="789.3197059343752" cy="0" transform="matrix(1,0,0,1,0,62.0401611328125)" r="73.98440805687734" fill="#ffc090" opacity="0.7200000000000001" style="transform:matrix(1, 0, 0, 1, 0, 62.0402);opacity:0.72;animation-play-state:paused" ></circle>
<circle cx="330.1098540197671" cy="0" transform="matrix(1,0,0,1,0,498.49169921875)" r="32.080152312185824" fill="#f7f6dc" opacity="0.36000000000000004" style="transform:matrix(1, 0, 0, 1, 0, 498.492);opacity:0.36;animation-play-state:paused" ></circle>
<circle cx="952.0243498690745" cy="0" transform="matrix(1,0,0,1,0,650.296630859375)" r="21.832434646707316" fill="#f7f6dc" opacity="0.36000000000000004" style="transform:matrix(1, 0, 0, 1, 0, 650.297);opacity:0.36;animation-play-state:paused" ></circle>
<circle cx="1473.9397944880627" cy="0" transform="matrix(1,0,0,1,0,48.140625)" r="34.420770183376455" fill="#f7f6dc" opacity="0.36000000000000004" style="transform:matrix(1, 0, 0, 1, 0, 48.1406);opacity:0.36;animation-play-state:paused" ></circle></g></svg>