<?xml version="1.0" encoding="utf-8"?><svg xmlns="http://www.w3.org/2000/svg" xmlns:xlink="http://www.w3.org/1999/xlink" width="1920" height="894" preserveAspectRatio="xMidYMid" viewBox="0 0 1920 894" style="z-index:1;margin-right:-2px;display:block;background-repeat-y:initial;background-repeat-x:initial;background-color:rgb(255, 192, 144);animation-play-state:paused" ><g transform="translate(960,447) scale(1,1) translate(-960,-447)" style="transform:matrix(1, 0, 0, 1, 0, 0);animation-play-state:paused" ><defs style="animation-play-state:paused" ><filter id="blur-rofzz3mae0l-1" x="-1" y="-1" width="3" height="3" style="animation-play-state:paused" ><feGaussianBlur stdDeviation="3" style="animation-play-state:paused" ></feGaussianBlur></filter>
<filter id="blur-rofzz3mae0l-2" x="-1" y="-1" width="3" height="3" style="animation-play-state:paused" ><feGaussianBlur stdDeviation="1.5" style="animation-play-state:paused" ></feGaussianBlur></filter>
<filter id="blur-rofzz3mae0l-3" x="-1" y="-1" width="3" height="3" style="animation-play-state:paused" ><feGaussianBlur stdDeviation="1" style="animation-play-state:paused" ></feGaussianBlur></filter></defs>
<circle cx="601.816307115012" cy="0" transform="matrix(1,0,0,1,0,538.603759765625)" r="24.37645969336471" fill="#7fb77e" opacity="0.36000000000000004" style="transform:matrix(1, 0, 0, 1, 0, 538.604);opacity:0.36;animation-play-state:paused" ></circle>
<circle cx="990.9039340029474" cy="0" transform="matrix(1,0,0,1,0,414.06622314453125)" r="44.040800326241346" fill="#7fb77e" opacity="0.63" style="transform:matrix(1, 0, 0, 1, 0, 414.066);opacity:0.63;animation-play-state:paused" ></circle>
<circle cx="1446.3153123785155" cy="0" transform="matrix(1,0,0,1,0,157.7032470703125)" r="58.31933057015659" fill="#7fb77e" opacity="0.63" style="transform:matrix(1, 0, 0, 1, 0, 157.703);opacity:0.63;animation-play-state:paused" ></circle>
<circle cx="140.9449166734882" cy="0" transform="matrix(1,0,0,1,0,219.54833984375)" r="56.19351261866963" fill="#7fb77e" opacity="0.63" style="transform:matrix(1, 0, 0, 1, 0, 219.548);opacity:0.63;animation-play-state:paused" ></circle>
<circle cx="781.0833939126121" cy="0" transform="matrix(1,0,0,1,0,351.17877197265625)" r="67.60165314798978" fill="#7fb77e" opacity="0.7200000000000001" style="transform:matrix(1, 0, 0, 1, 0, 351.179);opacity:0.72;animation-play-state:paused" ></circle>
<circle cx="1416.1020852604674" cy="0" transform="matrix(1,0,0,1,0,707.43212890625)" r="26.028151701676023" fill="#7fb77e" opacity="0.36000000000000004" style="transform:matrix(1, 0, 0, 1, 0, 707.432);opacity:0.36;animation-play-state:paused" ></circle>
<circle cx="608.8720833684664" cy="0" transform="matrix(1,0,0,1,0,248.17144775390625)" r="53.0220724889434" fill="#7fb77e" opacity="0.63" style="transform:matrix(1, 0, 0, 1, 0, 248.171);opacity:0.63;animation-play-state:paused" ></circle>
<circle cx="1785.8139441484595" cy="0" transform="matrix(1,0,0,1,0,34.601318359375)" r="62.29145321203191" fill="#7fb77e" opacity="0.7200000000000001" style="transform:matrix(1, 0, 0, 1, 0, 34.6013);opacity:0.72;animation-play-state:paused" ></circle>
<circle cx="723.9021679284218" cy="0" transform="matrix(1,0,0,1,0,683.065185546875)" r="74.6539972360146" fill="#7fb77e" opacity="0.7200000000000001" style="transform:matrix(1, 0, 0, 1, 0, 683.065);opacity:0.72;animation-play-state:paused" ></circle>
<circle cx="1503.6557393872918" cy="0" transform="matrix(1,0,0,1,0,554.2725830078125)" r="70.64462888264634" fill="#7fb77e" opacity="0.7200000000000001" style="transform:matrix(1, 0, 0, 1, 0, 554.273);opacity:0.72;animation-play-state:paused" ></circle>
<circle cx="919.9395348770986" cy="0" transform="matrix(1,0,0,1,0,531.3299560546875)" r="51.62287223920838" fill="#7fb77e" opacity="0.63" style="transform:matrix(1, 0, 0, 1, 0, 531.33);opacity:0.63;animation-play-state:paused" ></circle>
<circle cx="89.66963172271647" cy="0" transform="matrix(1,0,0,1,0,641.4954833984375)" r="65.65344586003758" fill="#7fb77e" opacity="0.7200000000000001" style="transform:matrix(1, 0, 0, 1, 0, 641.495);opacity:0.72;animation-play-state:paused" ></circle>
<circle cx="1666.2921929463312" cy="0" transform="matrix(1,0,0,1,0,592.0391845703125)" r="47.641304100884206" fill="#7fb77e" opacity="0.63" style="transform:matrix(1, 0, 0, 1, 0, 592.039);opacity:0.63;animation-play-state:paused" ></circle>
<circle cx="479.0643839017463" cy="0" transform="matrix(1,0,0,1,0,493.4866638183594)" r="68.78722261093971" fill="#7fb77e" opacity="0.7200000000000001" style="transform:matrix(1, 0, 0, 1, 0, 493.487);opacity:0.72;animation-play-state:paused" ></circle>
<circle cx="977.3981382971398" cy="0" transform="matrix(1,0,0,1,0,-19.72784423828125)" r="23.317569185483016" fill="#7fb77e" opacity="0.36000000000000004" style="transform:matrix(1, 0, 0, 1, 0, -19.7278);opacity:0.36;animation-play-state:paused" ></circle></g></svg>